<svg width="800" height="800" viewBox="0 0 800 800" fill="none" xmlns="http://www.w3.org/2000/svg">
<path d="M590.447 54.9157C506.781 56.4532 457.283 105.938 424.122 154.681C418.084 163.713 409.02 169.516 399.991 169.749C390.961 169.516 381.913 163.713 375.877 154.681C342.7 105.938 293.217 56.4532 209.536 54.9157C99.7344 52.6736 0 132.575 0 308.95C0 482.819 149.502 606.181 241.709 669.008C302.264 710.464 378.403 740.866 378.403 740.866C385.425 743.122 396.247 745.13 399.991 745.13C403.753 745.13 414.573 743.124 421.58 740.866C421.58 740.866 497.719 710.463 558.287 669.008C650.498 606.181 800 482.817 800 308.95C800 132.575 700.248 52.6736 590.447 54.9157ZM182.361 482.517C171.041 490.577 155.37 487.952 147.295 476.664C126.775 447.933 111.542 415.358 105.455 379.32C102.227 360.039 100.52 342.128 100.52 325.439C100.52 308.666 102.244 293.081 105.973 278.716C109.486 265.305 123.231 257.261 136.642 260.756C150.07 264.269 158.114 278.014 154.602 291.425C152.159 300.739 150.772 312.094 150.772 325.438C150.772 338.716 152.127 353.9 155.019 370.956C159.636 398.266 171.223 423.634 188.214 447.463C196.275 458.77 193.65 474.456 182.361 482.517ZM216.392 181.975C208.483 186.758 202.68 191.808 198.383 197.109C189.619 207.861 173.8 209.483 163.014 200.72C152.278 191.958 150.658 176.139 159.42 165.37C167.831 155.036 178.317 146.272 190.373 138.981C202.262 131.789 217.716 135.603 224.872 147.475C232.062 159.349 228.266 174.817 216.392 181.975Z" fill="#F18DBC"/>
</svg>
